<svg width="151" height="56" viewBox="0 0 151 56" fill="none" xmlns="http://www.w3.org/2000/svg">
<path d="M59.5718 26.8983C59.5718 35.0004 59.5718 43.1024 59.5718 51.2044C59.5718 54.0422 58.0839 55.3071 54.7606 55.3071H4.32224C1.28539 55.3071 -0.149494 53.9882 0.0122947 51.4044C0.0732971 50.436 0.0388171 49.4631 0.0388171 48.4835V2.45294C0.0388171 0.904883 0.0388163 0.900391 1.81584 0.900391H57.8133C59.5426 0.900391 59.5453 0.90039 59.5453 2.36532C59.5453 10.5437 59.5453 18.7214 59.5453 26.8983H59.5718ZM44.9286 47.7151C44.5811 47.1646 44.3981 46.8366 44.178 46.5265C40.1598 40.7747 36.1602 35.0116 32.0942 29.2845C31.5293 28.4936 31.5638 27.9364 32.0942 27.1724C36.1469 21.3936 40.1492 15.5901 44.1621 9.7933C44.3955 9.45628 44.5917 9.09904 44.9577 8.50363C43.8571 8.50363 43.0136 8.40252 42.2286 8.53733C41.6265 8.63844 40.8547 8.91704 40.5656 9.32372C36.3202 15.3452 32.1163 21.3906 27.954 27.46C27.8267 27.6758 27.7571 27.9127 27.7502 28.1539C27.7433 28.3951 27.7993 28.6346 27.9142 28.8553C32.0836 34.9217 36.2937 40.9679 40.5444 46.9939C40.6631 47.1609 40.8195 47.3064 41.0048 47.4221C41.19 47.5378 41.4004 47.6213 41.6238 47.6679C42.6185 47.7803 43.6316 47.7151 44.9286 47.7151ZM39.3906 8.50363C38.5286 8.50363 38.0406 8.5598 37.5765 8.50363C35.9851 8.27895 35.1523 8.89233 34.3699 10.0494C30.4922 15.7833 26.5085 21.47 22.5195 27.15C21.989 27.9161 21.9307 28.4823 22.4956 29.2777C26.474 34.879 30.3808 40.5118 34.3115 46.1289C35.4944 47.8207 36.7808 48.2049 39.1891 47.5107C38.9848 47.1781 38.8045 46.8523 38.587 46.5423C34.5396 40.7612 30.5055 34.9712 26.4184 29.2103C25.9171 28.5026 25.9277 27.9903 26.4184 27.2938C30.4693 21.5135 34.4945 15.7204 38.4942 9.91463C38.7488 9.53941 38.9769 9.15296 39.3906 8.50363ZM50.4294 47.7196C49.9865 47.0456 49.7451 46.6591 49.4825 46.2816C45.5041 40.559 41.5257 34.8229 37.4943 29.1272C36.9638 28.379 36.985 27.842 37.4943 27.105C41.5363 21.3667 45.5253 15.6013 49.525 9.84273C49.7743 9.48099 49.9679 9.09229 50.3207 8.50812C49.1563 8.50812 48.2678 8.42049 47.4217 8.53957C46.8913 8.61372 46.2255 8.89907 45.9683 9.2653C41.7246 15.2928 37.5287 21.3435 33.3806 27.4174C33.2625 27.6187 33.1978 27.8394 33.1909 28.0641C33.1841 28.2888 33.2352 28.512 33.3408 28.7183C37.5544 34.8461 41.8069 40.9559 46.0982 47.0478C46.2972 47.3332 46.7136 47.6589 47.0637 47.6904C48.053 47.7758 49.0582 47.7196 50.4294 47.7196ZM8.8762 47.4949C11.9555 48.0319 12.4249 47.9039 13.6795 46.039C16.7968 41.3956 19.8858 36.7446 22.9465 32.0862C23.1348 31.7986 23.2754 31.3358 23.1348 31.0707C22.7449 30.345 22.1933 29.6821 21.509 28.716L8.8762 47.4949ZM21.4029 27.3926C21.8564 26.8332 22.0501 26.5433 22.2994 26.2962C23.3311 25.2784 23.2224 24.3617 22.4108 23.1933C19.3898 18.8525 16.5254 14.4307 13.5866 10.0517C12.4992 8.42948 11.5046 8.15312 9.04329 8.85638L21.4029 27.3926ZM24.1507 32.5985C20.7186 37.6561 17.2786 42.4283 14.56 47.6118C15.8862 47.3871 17.3794 48.3487 18.3342 46.9377C20.7372 43.3713 23.1587 39.813 25.5988 36.2631C25.8351 35.9682 25.9572 35.6184 25.9482 35.2621C25.9392 34.9057 25.7994 34.5606 25.5484 34.2746C25.1585 33.7803 24.7421 33.3018 24.1507 32.6008V32.5985ZM23.9491 23.5596C26.0709 21.807 26.2406 21.0881 24.9729 19.2007C22.9439 16.1855 20.8884 13.1838 18.8514 10.1708C17.6499 8.39129 16.9471 8.1711 14.2895 8.89457L23.9491 23.5596ZM19.6047 47.5084C22.615 48.0454 22.9916 47.9218 24.3204 46.0412C25.4741 44.4078 26.604 42.7631 27.7392 41.1207C29.1555 39.0738 29.0335 38.411 26.7552 36.5462L19.6047 47.5084ZM26.8188 19.8725C27.1671 19.3672 27.546 18.8775 27.954 18.4054C28.8293 17.5066 28.7974 16.7 28.0389 15.7092C26.6783 13.9274 25.4927 12.0514 24.2382 10.2112C23.0844 8.51711 22.1614 8.22727 19.7107 8.89233C22.0341 12.4805 24.3443 16.0529 26.8188 19.8703V19.8725Z" fill="white"/>
<path d="M100.069 26.3693V32.1256C100.069 33.7411 99.9792 33.7973 97.9131 33.4355V22.6014C99.0244 22.2801 99.7989 22.4958 100.518 23.3181C102.008 25.0302 103.621 26.6681 105.191 28.3285C105.456 28.6026 105.764 28.843 106.339 29.353V22.5384H108.53V33.8399C107.764 33.4894 107.066 33.3479 106.705 32.9772C104.849 31.0719 103.098 29.1059 101.303 27.1669C101.019 26.8613 100.703 26.5782 100.404 26.2839L100.069 26.3693Z" fill="white"/>
<path d="M125.996 33.5264V22.3867C128.322 22.4788 130.581 22.3867 132.762 22.6968C135.894 23.1461 137.628 25.3593 137.517 28.3138C137.411 31.0819 135.477 33.1872 132.414 33.4815C130.332 33.686 128.21 33.5264 125.996 33.5264ZM128.163 31.693C129.452 31.693 130.587 31.7515 131.711 31.693C133.759 31.5627 135.13 30.2596 135.289 28.397C135.456 26.4557 134.228 24.7751 132.281 24.4426C131.197 24.2959 130.098 24.2447 129.001 24.2898C128.719 24.2898 128.205 24.6111 128.205 24.7931C128.144 27.0376 128.163 29.2979 128.163 31.6886V31.693Z" fill="white"/>
<path d="M81.8823 33.4896C82.0335 33.1481 82.1476 32.8358 82.3067 32.5392C83.8981 29.5105 85.5372 26.493 87.0808 23.4486C87.4733 22.6779 87.9799 22.4151 88.9612 22.424C89.8895 22.424 90.3696 22.6734 90.7436 23.4014C92.3164 26.4796 93.9608 29.5307 95.576 32.5932C95.7139 32.8583 95.8174 33.1391 95.9394 33.4177C93.929 33.8334 93.7141 33.7817 92.9529 32.3707C92.6373 31.7843 92.2395 31.5192 91.4544 31.5371C89.7808 31.5776 88.1046 31.5686 86.431 31.5259C85.6671 31.5057 85.1048 31.6854 84.9298 32.3303C84.5213 33.784 83.3199 33.7503 81.8823 33.4896ZM91.5605 29.6588L89.1018 24.9517L88.7199 24.9854C87.9587 26.493 87.1948 28.0007 86.3567 29.6588H91.5605Z" fill="white"/>
<path d="M124.125 33.477C122.613 33.7803 121.507 33.7017 121.011 32.2997C120.892 31.9626 120.128 31.6032 119.638 31.5762C117.967 31.4863 116.285 31.5762 114.598 31.5245C113.829 31.5065 113.272 31.7043 113.084 32.3334C112.654 33.6702 111.577 33.8118 110.108 33.477C110.173 33.2074 110.262 32.9423 110.373 32.6839C112.007 29.5833 113.683 26.4984 115.272 23.3798C115.654 22.6249 116.171 22.4316 117.075 22.4316C117.98 22.4316 118.5 22.6136 118.884 23.3663C120.476 26.5119 122.173 29.6417 123.825 32.7782C123.945 32.9782 124.011 33.1917 124.125 33.477ZM119.704 29.6574C118.807 27.9206 118.028 26.4085 117.245 24.8964L116.882 24.9346L114.495 29.6529L119.704 29.6574Z" fill="white"/>
<path d="M150.947 22.6663C150.947 25.0614 151.088 27.4183 150.91 29.7573C150.716 32.3299 148.478 33.9049 145.385 33.9251C142.293 33.9453 139.961 32.4445 139.699 29.9325C139.468 27.7082 139.566 25.4591 139.503 23.2235C139.481 22.4776 140.073 22.5248 140.664 22.5068C141.335 22.4866 141.744 22.6101 141.725 23.2999C141.697 25.2052 141.704 27.1098 141.746 29.0136C141.791 30.9975 143.139 32.1793 145.287 32.1906C147.356 32.1906 148.666 31.029 148.714 29.0675C148.756 27.3869 148.735 25.6973 148.74 24.0256C148.754 22.3944 148.846 22.3315 150.947 22.6663Z" fill="white"/>
<path d="M81.1635 33.4557C79.4289 33.8916 78.3309 33.4894 77.5405 32.2334C76.9358 31.2673 76.095 30.4045 75.2277 29.3305C74.3577 30.4068 73.5302 31.2426 72.952 32.1862C72.1855 33.4422 71.1193 33.8961 69.3237 33.4624C70.2229 32.339 71.0928 31.2538 71.976 30.1686C73.7451 27.9779 73.7451 27.9779 71.9468 25.7581C71.1511 24.774 70.3599 23.7869 69.573 22.7968C69.5306 22.7451 69.5571 22.6552 69.5492 22.5384C70.9124 22.3137 72.0609 22.3452 72.8168 23.6236C73.4215 24.6437 74.2967 25.5491 75.2383 26.7422C76.1082 25.6345 76.9411 24.7358 77.559 23.7427C78.3256 22.5092 79.4156 22.1901 81.0786 22.6058C79.8559 24.1089 78.7181 25.6008 77.4583 27.0141C76.8111 27.7398 76.8482 28.2633 77.4768 28.9733C78.734 30.4 79.8904 31.8964 81.1635 33.4557Z" fill="white"/>
<path d="M74.064 44.5723L70.1943 39.8332L69.7806 39.9433V47.0081H69.396V38.6378L69.8177 38.4715C71.181 40.1568 72.5416 41.8421 74.0613 43.7139L78.2891 38.4355L78.7479 38.6288V47.0575H78.3793V39.8175L77.9655 39.7186L74.064 44.5723Z" fill="white"/>
<path d="M99.1626 47.2834C98.1998 46.4003 97.1442 45.5734 96.2928 44.6184C95.3513 43.5578 94.1127 43.8544 92.9244 43.9016C92.7467 43.9016 92.4736 44.3847 92.4497 44.6566C92.386 45.4386 92.4285 46.2296 92.4285 47.0115L92.0731 47.0228C91.9972 46.7981 91.9465 46.5679 91.9219 46.3352C91.9086 44.0994 91.9351 41.8635 91.9033 39.6277C91.9033 38.8772 92.1685 38.5379 93.1154 38.5851C94.2108 38.6368 95.3195 38.5379 96.4148 38.5986C98.4385 38.7132 99.579 39.6547 99.5976 41.131C99.6188 42.6725 98.5367 43.6522 96.2451 43.9128L99.5313 46.9801L99.1626 47.2834ZM94.8288 38.9311V38.9873C94.4787 38.9873 94.1233 39.012 93.7679 38.9873C92.7521 38.9019 92.402 39.2345 92.3966 40.1288C92.3966 43.6522 92.4523 43.7241 96.6403 43.3376C98.0752 43.205 98.8523 42.5691 98.9504 41.4478C99.0592 40.2187 98.3165 39.3288 96.9135 39.0996C96.2224 39.0133 95.5266 38.9571 94.8288 38.9311Z" fill="white"/>
<path d="M109.821 38.6484H116.516C116.516 38.7563 116.529 38.8619 116.534 38.9675H114.184C113.259 38.9675 112.328 38.99 111.407 38.9675C110.675 38.9495 110.431 39.2102 110.392 39.8281C110.206 42.6504 110.187 42.6482 113.558 42.6482H116.274V43.0751C115.147 43.0751 114.02 43.0751 112.893 43.0751C109.917 43.0886 110.461 42.9336 110.405 45.1469C110.405 45.6233 110.405 46.0997 110.405 46.7671H116.667V47.2165C115.208 47.2165 113.749 47.2165 112.291 47.2165C109.442 47.1895 109.843 47.5468 109.819 45.1649C109.805 43.0077 109.821 40.855 109.821 38.6484Z" fill="white"/>
<path d="M146.826 42.8492C147.129 42.8245 147.428 42.7818 147.728 42.775C150.839 42.7054 151.102 42.9391 150.662 45.5591C150.564 45.909 150.321 46.2176 149.977 46.4288C147.855 47.7613 144.487 47.4804 142.864 45.8715C141.164 44.1884 141.273 41.2718 143.081 39.7101C144.845 38.1888 148.211 38.0832 150.243 39.4854C150.298 39.5236 150.298 39.6157 150.375 39.8112C149.656 39.5298 148.92 39.28 148.171 39.0629C145.498 38.4158 142.904 39.6584 142.31 41.8358C141.639 44.2941 143.259 46.5254 146.126 46.7681C147.232 46.8602 148.513 46.5636 149.516 46.1366C150.699 45.64 150.022 44.5255 150.025 43.6918C150.025 43.5233 149.105 43.2829 148.582 43.2042C147.999 43.1547 147.411 43.148 146.826 43.184C146.821 43.0739 146.824 42.9638 146.826 42.8492Z" fill="white"/>
<path d="M139.171 45.4975V38.7698H139.513V47.1176L132.694 40.1854L132.318 40.2529V47.0075H131.922V38.6035L138.792 45.5919L139.171 45.4975Z" fill="white"/>
<path d="M89.7649 47.1617C89.619 47.0022 89.3883 46.8584 89.3405 46.6786C88.9082 45.1214 87.667 44.7686 85.9881 45.0023C85.6357 45.0388 85.2795 45.0388 84.9272 45.0023C83.2058 44.89 81.5216 44.8113 81.1583 46.7775C81.1317 46.9123 80.8771 47.0157 80.4819 47.0157C81.0628 45.8697 81.6277 44.7169 82.2245 43.5754C82.9936 42.1126 83.792 40.6543 84.5664 39.2004C84.8821 38.6049 85.3621 38.2117 85.813 39.0004C87.2983 41.6407 88.6775 44.3237 90.0964 46.991L89.7649 47.1617ZM82.3651 44.4653H88.1603L85.455 39.2611H85.0624C84.1978 40.9419 83.3252 42.6159 82.3651 44.4653Z" fill="white"/>
<path d="M102.355 42.392L107.312 38.4844L107.628 38.7675L102.748 42.6976L108.028 46.9558L107.742 47.2322L102.034 42.8257V46.9872H101.658V38.799L101.923 38.7877V42.2415L102.355 42.392Z" fill="white"/>
<path d="M126.674 38.9711C125.9 38.9711 125.123 39.0071 124.351 38.9711C123.412 38.9149 123.133 39.2632 123.147 40.0227C123.184 42.1485 123.147 44.2764 123.147 46.4044C123.129 46.6118 123.092 46.8177 123.035 47.0201H122.611C122.611 45.946 122.611 44.8719 122.611 43.7978C122.611 42.4923 122.627 41.1867 122.659 39.8812C122.677 39.2071 122.351 38.9352 121.553 38.9711C120.754 39.0071 119.916 38.9711 119.097 38.9711C119.097 38.8812 119.097 38.7891 119.097 38.6992H126.672C126.666 38.7891 126.672 38.879 126.674 38.9711Z" fill="white"/>
<path d="M128.741 47.0077V38.8711H129.048V46.9852L128.741 47.0077Z" fill="white"/>
</svg>
