<svg width="157" height="66" viewBox="0 0 157 66" fill="none" xmlns="http://www.w3.org/2000/svg">
<g filter="url(#filter0_f_156_212)">
<path d="M83.0621 9.32227C73.0405 17.9044 62.4127 26.0916 49.5818 31.862C42.4848 35.0534 35.0507 37.3185 26.8713 36.8528C18.7866 36.3947 12.3106 33.3425 7.60585 27.638C7.35154 27.3292 7.13567 26.9977 6.91389 26.6687C6.83628 26.5091 6.77205 26.3451 6.72168 26.1777C8.24458 26.5877 9.63738 27.0458 11.0775 27.3318C18.6477 28.8503 26.2356 28.3795 33.788 27.271C46.3113 25.4311 58.0865 21.688 69.2258 16.5225C74.0163 14.303 78.5555 11.6835 83.0621 9.32227Z" fill="white"/>
<path d="M17.832 38.615C18.086 38.6492 18.337 38.6982 18.5831 38.7618C25.139 41.0623 31.7481 40.6017 38.3218 38.901C47.4326 36.5473 55.4729 32.3917 63.0313 27.5653C67.047 25.0066 70.8824 22.2506 75.0193 19.416C73.3161 21.2812 71.7961 22.9946 70.2111 24.6625C64.7641 30.4024 58.8854 35.7754 51.9067 40.1816C47.5597 42.9276 42.8875 45.1167 37.5293 46.0987C28.2765 47.7969 20.9252 43.3553 17.832 38.615Z" fill="white"/>
<path d="M26.5758 4C23.7695 5.90573 20.8538 7.70769 18.1895 9.75008C16.2723 11.1973 14.5585 12.8306 13.0826 14.6169C10.2526 18.0917 11.1102 21.1667 15.3655 23.3635C16.983 24.1987 18.775 24.7833 20.6882 25.5653C16.152 26.0968 11.8169 26.4233 7.63855 24.8061C4.24972 23.5204 3.16151 21.0376 4.65484 18.1322C5.12605 17.2041 5.74502 16.3362 6.49416 15.5533C11.8761 10.0361 19.1594 6.90541 26.5758 4Z" fill="white"/>
<path d="M109.26 47.1819C107.932 47.1819 106.598 47.1414 105.279 47.1946C104.097 47.2401 104.046 46.6656 104.07 45.9089C104.094 45.1522 104.097 44.5853 105.288 44.6131C107.595 44.6662 109.907 44.6258 112.217 44.6258C113.169 44.6258 114.089 44.5093 114.08 43.4692C114.08 42.5201 113.293 42.1885 112.282 42.181C110.954 42.181 109.621 42.1961 108.302 42.1455C104.984 42.0215 103.133 39.8121 104.088 37.1015C104.502 35.9272 105.404 35.0414 106.885 34.9782C110.023 34.8415 113.166 34.8213 116.306 34.7757C117.424 34.758 117.167 35.5021 117.158 36.0538C117.158 36.6587 117.33 37.3698 116.126 37.347C114.015 37.3091 111.9 37.347 109.786 37.347C108.881 37.347 107.861 37.347 107.84 38.4125C107.82 39.478 108.686 39.7893 109.825 39.802C111.392 39.8197 112.983 39.7792 114.517 40.0019C116.812 40.336 117.918 41.6621 117.791 43.578C117.664 45.4938 116.286 46.8276 114.118 47.0579C113.727 47.1125 113.332 47.148 112.935 47.1642C111.708 47.1794 110.478 47.1642 109.251 47.1642L109.26 47.1819Z" fill="white"/>
<path d="M148.837 34.9495C148.861 35.3772 148.864 35.7923 148.917 36.2149C149.029 37.1033 148.571 37.3994 147.554 37.3665C146.075 37.3159 144.597 37.3412 143.118 37.3943C142.595 37.4146 141.935 37.4728 141.604 37.7537C141.134 38.1738 140.921 38.804 140.601 39.3431C141.119 39.4848 141.636 39.7278 142.163 39.748C143.683 39.8037 145.212 39.7784 146.734 39.7708C149.1 39.7708 149.266 39.9403 148.606 42.1979H140.791C140.56 43.767 141.296 44.506 143.204 44.6098C144.681 44.6885 146.161 44.6986 147.639 44.6401C148.739 44.5996 148.952 45.0476 148.94 45.8625C148.929 46.6775 148.878 47.2697 147.631 47.2089C146.208 47.1406 144.777 47.2089 143.352 47.1887C137.26 47.09 135.778 42.8863 136.423 39.5076C136.976 36.6098 138.863 35.1697 142.287 34.909C144.141 34.7673 146.016 34.8205 147.885 34.8027C148.207 34.8267 148.526 34.8758 148.837 34.9495Z" fill="white"/>
<path d="M119.379 34.769C120.754 34.769 121.839 34.6754 122.88 34.8171C123.3 34.8728 123.788 35.3891 123.971 35.789C124.876 37.7428 125.683 39.732 126.532 41.7061C126.715 42.1338 126.92 42.5539 127.26 43.2904C127.606 42.8256 127.923 42.3448 128.209 41.8503C129.096 39.98 130.036 38.1224 130.796 36.2116C131.255 35.0651 131.979 34.5691 133.375 34.7488C133.981 34.8272 134.611 34.7488 135.522 34.7488C134.555 36.7102 133.709 38.4388 132.843 40.1623C131.834 42.1718 130.773 44.1635 129.812 46.1882C129.457 46.9348 128.945 47.2385 128.037 47.1778C127.354 47.1322 126.653 47.2259 125.967 47.1373C125.595 47.0892 125.08 46.8665 124.947 46.6058C123.105 42.7716 121.313 38.907 119.379 34.769Z" fill="white"/>
<path d="M94.2316 34.9345C93.5692 36.2632 92.96 37.4932 92.342 38.7307C91.097 41.2034 89.8048 43.6608 88.619 46.1562C88.2405 46.9484 87.7319 47.323 86.759 47.1964C86.6614 47.1964 86.5638 47.1964 86.4633 47.1964C83.5978 47.1331 84.139 47.6165 82.9887 45.0832C81.658 42.1423 80.2474 39.2268 78.8724 36.2986C78.6802 35.8835 78.5087 35.4584 78.2189 34.7801C79.5644 34.7801 80.6821 34.6991 81.7674 34.8257C82.1341 34.8661 82.551 35.3875 82.7225 35.7646C83.6481 37.7893 84.4968 39.8671 85.3839 41.9196C85.5613 42.3296 85.789 42.7244 86.1705 43.471C86.9246 41.8994 87.5189 40.6694 88.1045 39.4369C88.4741 38.6574 88.8201 37.8677 89.1897 37.0882C90.4376 34.4562 90.5588 34.403 94.2316 34.9345Z" fill="white"/>
<path d="M152.471 40.9244C152.471 39.1983 152.492 37.4698 152.471 35.7437C152.456 35.0452 152.767 34.7314 153.595 34.7618C155.898 34.8326 158.214 34.8048 160.509 34.9744C163.064 35.1616 164.814 37.7811 163.829 39.8133C163.744 39.9263 163.63 40.0214 163.496 40.0919C163.362 40.1624 163.211 40.2064 163.055 40.2208C162.324 40.2714 161.449 40.4283 160.89 40.155C160.435 39.9323 160.322 39.1579 160.109 38.6112C159.713 37.5989 157.708 36.8396 156.7 37.4597C156.404 37.6393 156.301 38.186 156.295 38.5656C156.256 41.0028 156.215 43.4451 156.295 45.8798C156.324 46.8668 155.981 47.211 154.816 47.2034C152.483 47.1832 152.489 47.2312 152.51 45.2192C152.51 43.7868 152.51 42.3543 152.51 40.9168L152.471 40.9244Z" fill="white"/>
<path d="M63.5957 61.0287C48.5943 59.3126 33.6225 57.3055 18.3994 58.3128C23.4827 56.9967 28.7049 56.6625 33.9597 56.7942C44.0463 57.0625 53.8905 58.6495 63.5957 61.0287Z" fill="white"/>
<path d="M54.805 40.3516C51.7207 44.1478 48.4531 47.691 43.982 50.2674C41.3857 51.7606 38.5469 52.6388 35.3473 52.039C33.6174 51.71 32.2128 50.9305 31.3848 49.8498C33.5523 49.7461 35.8382 49.8498 38.0234 49.4879C41.5572 48.9134 44.5852 47.2557 47.4359 45.4537C49.9465 43.8593 52.3003 42.0928 54.805 40.3516Z" fill="white"/>
<path d="M100.515 41.0566C100.515 42.6536 100.45 44.2556 100.539 45.8501C100.595 46.9206 100.113 47.3078 98.921 47.1889C98.5307 47.1509 98.0664 47.2901 97.7589 47.1509C97.3449 46.9636 96.7535 46.5891 96.7476 46.2854C96.6766 42.754 96.6766 39.2218 96.7476 35.6887C96.7476 35.3825 97.339 35.0028 97.75 34.8105C98.0457 34.6662 98.5218 34.8105 98.9092 34.7624C100.139 34.6409 100.663 34.9649 100.559 36.1468C100.417 37.7741 100.524 39.4192 100.524 41.0566H100.515Z" fill="white"/>
<path d="M96.7832 33.4794V30.0801C98.0459 30.1965 99.415 30.0573 100.376 30.5306C100.826 30.7508 100.861 32.6745 100.415 32.9175C99.486 33.4211 98.108 33.3174 96.7832 33.4794Z" fill="white"/>
<path d="M36.8018 59.7714H18.1484C24.3761 59.096 30.5978 58.8962 36.8018 59.7714Z" fill="white"/>
<path d="M49.1239 57.0802L35.335 55.6141C39.948 55.2545 44.4073 55.9357 49.1239 57.0802Z" fill="white"/>
</g>
<defs>
<filter id="filter0_f_156_212" x="0" y="0" width="184.999" height="65.0287" filterUnits="userSpaceOnUse" color-interpolation-filters="sRGB">
<feFlood flood-opacity="0" result="BackgroundImageFix"/>
<feBlend mode="normal" in="SourceGraphic" in2="BackgroundImageFix" result="shape"/>
<feGaussianBlur stdDeviation="2" result="effect1_foregroundBlur_156_212"/>
</filter>
</defs>
</svg>
