<svg width="194" height="36" viewBox="0 0 194 36" fill="none" xmlns="http://www.w3.org/2000/svg">
<path d="M0 0.739686H191.486C191.732 0.751856 191.978 0.751856 192.224 0.739686C193.563 0.598597 193.997 1.05592 193.997 2.17733C193.944 8.58226 193.97 14.9872 193.97 21.3946C193.97 25.4886 193.929 29.585 194 33.6766C194.018 34.8101 193.554 35.1045 192.227 35.102C177.014 35.068 161.802 35.0607 146.589 35.0801H0V0.739686ZM70.0652 13.0557C70.0652 17.9209 70.0475 22.5427 70.1096 27.1646C70.1096 27.4078 70.7566 27.8141 71.1288 27.836C72.4996 27.9187 73.8852 27.8214 75.2649 27.8871C76.3728 27.9381 76.7243 27.6 76.7007 26.7024C76.6416 24.4742 76.6771 22.246 76.6859 20.0153C76.6859 18.8209 77.2266 17.8795 78.6594 17.4246C81.0229 16.6754 82.8901 17.8576 82.9669 20.2075C83.0378 22.4357 83.0112 24.6663 82.9669 26.8946C82.9669 27.6243 83.2623 27.9089 84.1663 27.8822C85.5431 27.8384 86.9227 27.8457 88.3024 27.8822C89.1237 27.9016 89.4369 27.6389 89.428 26.9627C89.3955 23.9633 89.5137 20.9616 89.3719 17.9622C89.2035 14.4423 85.6849 12.1581 81.469 12.8538C79.8382 13.119 78.3079 13.7928 76.94 14.2161C76.6121 13.8804 76.2546 13.1628 75.8233 13.1336C73.965 12.9828 72.1126 13.0557 70.0652 13.0557ZM60.1239 13.0338C58.301 13.0338 56.8298 13.1093 55.3762 13.012C53.8666 12.9098 53.0984 13.3331 52.5962 14.5566C51.6892 16.7605 50.5282 18.8915 49.3464 21.2948C49.0037 20.6599 48.791 20.3023 48.6137 19.9326C47.6418 17.9428 46.6934 15.9456 45.6919 13.9655C45.5205 13.6298 45.1365 13.1336 44.8292 13.1214C42.7996 13.046 40.764 13.0825 38.5247 13.0825C38.8437 13.7344 39.0299 14.1431 39.2426 14.542C40.9876 17.8455 42.7385 21.1472 44.4954 24.4474C45.0863 25.5542 45.4053 27.0746 46.4512 27.6097C47.5649 28.1814 49.4055 27.763 50.9063 27.8725C51.9965 27.9503 52.4751 27.5465 52.868 26.7802C54.3245 23.9463 55.8489 21.1391 57.3438 18.3198C58.2272 16.6632 59.0928 14.9969 60.1239 13.0338ZM8.736 13.0655C9.13779 13.8512 9.39482 14.3718 9.66662 14.8826C11.3624 18.0692 13.0612 21.2543 14.7629 24.4377C16.6123 27.9041 16.6123 27.8725 21.1738 27.8822C22.2433 27.8822 22.7366 27.5587 23.1414 26.7924C25.3394 22.5962 27.5965 18.4195 29.8241 14.2331C29.9925 13.9193 30.09 13.5812 30.3057 13.0387C28.3469 13.0387 26.5921 13.063 24.8401 13.0387C23.9538 13.0192 23.5107 13.3136 23.2034 13.9752C22.3437 15.8264 21.4308 17.6581 20.5179 19.4947C20.2579 20.0275 19.9921 20.5602 19.5873 21.3727C18.2992 18.709 17.2002 16.3738 16.0244 14.075C15.8264 13.6882 15.3242 13.1506 14.9254 13.1311C12.9814 13.012 11.0374 13.0655 8.736 13.0655ZM90.7693 17.3565C91.0727 17.4308 91.3845 17.4797 91.6999 17.5025C94.0634 17.466 93.7148 17.6898 93.7266 19.2928C93.7443 21.7619 93.768 24.2334 93.7118 26.7C93.6911 27.6073 94.0752 27.9162 95.1683 27.8749C96.4476 27.8188 97.7296 27.8188 99.009 27.8749C99.9662 27.9114 100.318 27.6097 100.309 26.824C100.279 24.4766 100.309 22.1292 100.309 19.7696C100.309 17.7457 100.309 17.7457 102.755 17.4562C102.958 17.4088 103.156 17.3469 103.346 17.2714C103.346 16.24 103.302 15.155 103.361 14.0725C103.405 13.2576 102.956 12.9438 102.049 13.0387C100.595 13.1895 100.238 12.6617 100.276 11.5184C100.353 8.41441 100.294 8.40225 96.4889 8.41928C93.2391 8.43144 93.7827 8.20764 93.7148 10.6816C93.6557 12.8368 93.7148 12.8368 91.2184 13.0922C91.0605 13.1307 90.9087 13.1846 90.7663 13.2528L90.7693 17.3565ZM114.88 21.774C114.475 21.8348 114.135 21.8665 113.81 21.9394C111.583 22.4454 111.447 22.6984 112.425 24.445C114.295 27.7703 119.613 29.2298 124.106 27.656C126.86 26.6829 128.49 24.6736 128.405 22.3433C128.322 20.1175 126.65 18.3368 123.746 17.5608C122.206 17.1473 120.596 16.9235 119.019 16.5878C116.951 16.1427 116.064 15.2013 116.23 13.6687C116.378 12.3041 117.757 11.2362 119.589 11.0513C122.401 10.7789 123.695 11.4405 125.356 14.0725C125.784 13.9728 126.242 13.8828 126.7 13.7563C128.337 13.2868 128.393 13.1628 127.637 11.8638C126.198 9.38744 123.04 8.14197 119.196 8.53361C115.704 8.88876 112.9 11.2508 112.717 13.9923C112.543 16.5829 114.581 18.5971 118.194 19.3634C119.527 19.6455 120.892 19.8256 122.212 20.1442C124.015 20.5796 125.034 21.684 124.936 22.949C124.836 24.3185 123.518 25.3548 121.598 25.5761C118.103 25.9848 116.256 24.968 114.88 21.774ZM165.399 16.004C162.164 13.6298 157.851 14.581 155.856 16.2813C153.014 18.7139 152.589 23.2944 155.298 25.8899C156.367 26.8786 157.744 27.6079 159.281 27.999C161.499 28.539 163.733 28.1717 165.455 26.5029L165.913 27.7873C166.333 27.8141 166.723 27.8141 167.095 27.8627C168.501 28.0476 168.926 27.6195 168.885 26.4032C168.764 22.9976 168.838 19.592 168.808 16.1864C168.808 15.6683 169.074 14.8875 168.002 14.9045C167.042 14.941 165.606 14.3182 165.411 16.004H165.399ZM145.572 21.4237C145.572 17.4125 142.281 14.5445 137.596 14.5007C133.011 14.4569 129.516 17.3954 129.471 21.3362C129.424 25.2283 132.913 28.2544 137.489 28.2836C142.066 28.3128 145.578 25.384 145.584 21.4237H145.572ZM37.5852 13.0387C35.8126 13.0387 34.0961 13.0655 32.3944 13.0387C31.4135 13.0168 31.1329 13.3793 31.1358 14.1334C31.1634 18.3368 31.1634 22.5411 31.1358 26.7462C31.1358 27.5514 31.4135 27.9357 32.4801 27.8822C33.7046 27.8104 34.9337 27.8104 36.1582 27.8822C37.4434 27.9673 37.7152 27.5076 37.7033 26.5467C37.6531 22.4649 37.6827 18.383 37.6768 14.2988C37.6768 13.9363 37.6265 13.5836 37.5852 13.0387ZM60.9009 13.0728C60.9009 17.8941 60.9009 22.5427 60.9422 27.1816C60.9422 27.4054 61.5331 27.7995 61.8758 27.8141C63.3978 27.8907 64.9241 27.8907 66.4462 27.8141C66.8007 27.7971 67.4093 27.3276 67.4122 27.0843C67.4743 22.6716 67.4684 18.2566 67.427 13.8439C67.427 13.586 66.9986 13.1141 66.7534 13.1141C64.8538 13.046 62.9512 13.0728 60.9009 13.0728ZM151.197 18.1957C151.197 15.3594 151.15 12.523 151.221 9.68178C151.248 8.70875 150.834 8.41685 149.694 8.44847C148.606 8.48009 147.835 8.48253 147.85 9.7061C147.915 15.3821 147.915 21.0532 147.85 26.7194C147.835 28.05 148.819 27.8044 149.788 27.8652C150.89 27.9357 151.236 27.6 151.215 26.6927C151.159 23.866 151.197 21.0297 151.197 18.1957ZM174.741 15.9456C174.971 14.6515 173.671 14.8972 172.531 14.8777C171.154 14.8534 171.414 15.6537 171.414 16.3081C171.414 19.7891 171.444 23.2701 171.387 26.7511C171.37 27.7241 171.869 27.9308 172.891 27.87C173.801 27.8165 174.814 28.0598 174.758 26.7924C174.682 25.0142 174.803 23.2287 174.726 21.4408C174.628 19.2515 175.908 17.3541 179.175 17.5754C180.691 17.6776 180.224 16.6657 180.286 16.0308C180.357 15.3253 180.286 14.4691 179.042 14.7123C177.583 15.0115 176.185 15.5248 174.741 15.9456ZM67.5452 8.82795C67.5366 8.08344 67.1691 7.37224 66.5236 6.85081C65.8782 6.32939 65.0076 6.04044 64.1034 6.04753C63.1992 6.05463 62.3354 6.35719 61.7021 6.88866C61.0689 7.42012 60.7179 8.13696 60.7266 8.88147C60.7266 10.4505 62.3544 11.8005 64.1743 11.7689C65.0922 11.7404 65.9598 11.4162 66.5903 10.8661C67.2207 10.3161 67.5637 9.58414 67.5452 8.82795ZM34.4093 6.09132C33.5177 6.09387 32.6635 6.38611 32.0322 6.9045C31.401 7.42289 31.0438 8.12551 31.0383 8.85957C31.0206 10.4286 32.6101 11.7786 34.4388 11.7786C35.3295 11.7442 36.1723 11.4369 36.802 10.9171C37.4316 10.3973 37.8027 9.70248 37.8422 8.96904C37.8481 8.59409 37.7637 8.22189 37.594 7.87391C37.4244 7.52593 37.1727 7.20905 36.8536 6.94153C36.5344 6.67402 36.1541 6.46116 35.7346 6.31524C35.3151 6.16932 34.8647 6.09321 34.4093 6.09132ZM106.563 22.3457C105.895 22.3375 105.24 22.4929 104.679 22.7921C104.119 23.0913 103.679 23.5208 103.415 24.0262C103.152 24.5316 103.077 25.0901 103.199 25.6307C103.322 26.1713 103.637 26.6697 104.104 27.0627C104.572 27.4557 105.17 27.7255 105.824 27.8379C106.478 27.9503 107.158 27.9002 107.777 27.694C108.396 27.4879 108.927 27.1348 109.302 26.6798C109.677 26.2248 109.88 25.6882 109.884 25.1383C109.892 24.7746 109.812 24.4132 109.649 24.0751C109.486 23.7371 109.243 23.4291 108.934 23.1692C108.625 22.9093 108.256 22.7027 107.849 22.5613C107.442 22.4199 107.005 22.3466 106.563 22.3457ZM185.016 16.3275V14.6393L183.949 15.6391L183.063 14.761C182.389 16.2935 182.596 16.4394 185.016 16.3275Z" fill="white"/>
<path d="M165.68 21.6267C165.411 22.3249 165.231 23.3175 164.673 24.1325C164.321 24.6481 163.806 25.0758 163.183 25.3702C162.56 25.6645 161.852 25.8145 161.134 25.8043C160.416 25.794 159.715 25.624 159.104 25.3121C158.494 25.0002 157.998 24.5581 157.668 24.0327C157.189 23.32 156.906 22.5296 156.839 21.717C156.772 20.9045 156.921 20.0897 157.278 19.3301C157.555 18.6064 158.12 17.9806 158.882 17.553C159.643 17.1255 160.557 16.9211 161.476 16.9727C163.358 17.0384 164.726 17.9458 165.278 19.5588C165.457 20.2417 165.591 20.9319 165.68 21.6267Z" fill="white"/>
<path d="M142.21 21.3922C142.21 24.1486 140.231 25.9246 137.309 25.7713C136.869 25.7476 136.436 25.6731 136.021 25.5499C133.454 24.7958 132.225 22.1853 133.217 19.6236C133.385 19.1457 133.667 18.7004 134.047 18.314C134.428 17.9276 134.898 17.608 135.432 17.3741C135.965 17.1402 136.549 16.9968 137.151 16.9524C137.752 16.9079 138.359 16.9633 138.934 17.1154C141.029 17.6384 142.21 19.1735 142.21 21.3922Z" fill="white"/>
</svg>
