<svg width="148" height="32" viewBox="0 0 148 32" fill="none" xmlns="http://www.w3.org/2000/svg">
<path d="M26.2881 18.9367V17.5987H140.616L139.397 15.6132L147.002 18.1562L139.421 20.7149L140.489 18.9406L26.2881 18.9367Z" fill="white"/>
<path d="M0 0.927389C3.11187 0.927389 6.16151 0.782648 9.1896 0.974334C11.3655 1.11321 12.3972 2.12054 12.6677 3.59143C12.931 5.01148 12.0741 6.25157 10.274 7.07308C10.104 7.14936 9.94362 7.2413 9.5702 7.43494C10.1208 7.61684 10.4966 7.74594 10.8772 7.8633C12.4523 8.35034 13.5103 9.19532 13.6755 10.6251C13.8502 12.1508 13.4146 13.522 11.7389 14.363C10.8413 14.8129 9.79761 15.2354 8.77787 15.3195C5.90537 15.5542 3.01133 15.607 0.00957521 15.7381L0 0.927389ZM3.47093 11.2002C3.47093 11.7537 3.39194 12.319 3.50445 12.8569C3.5595 13.121 3.9832 13.5454 4.22257 13.5356C5.64273 13.5005 7.05793 13.3815 8.45711 13.1797C9.50796 13.0114 10.0011 12.319 10.0466 11.4427C10.092 10.5665 9.68271 9.82319 8.62946 9.48676C7.89697 9.254 7.10704 9.02124 6.33625 9.00364C2.67621 8.92148 3.46615 8.73958 3.47093 11.2002ZM3.40151 4.92737C3.40151 5.41245 3.3297 5.90536 3.43024 6.38262C3.4829 6.62516 3.8659 7.02223 4.05979 7.00658C5.30694 6.91269 6.62828 6.899 7.75813 6.51954C9.38588 5.97382 9.51754 3.97676 8.07172 3.24327C7.52151 2.9874 6.91134 2.82943 6.28119 2.7797C3.63371 2.51565 3.28183 2.79144 3.40151 4.92737Z" fill="white"/>
<path d="M75.8336 0.663693C75.6086 1.76295 75.4625 2.48862 75.3381 3.09889C73.5619 3.02065 71.915 2.89155 70.2657 2.90329C69.2651 2.90329 68.2047 3.09889 67.9821 4.11991C67.7427 5.17418 68.6739 5.63775 69.6338 6.01721C70.8522 6.49838 72.1185 6.89936 73.3177 7.40791C76.1041 8.59128 77.2339 10.469 76.6211 12.6891C76.2309 14.0993 75.1442 14.9776 73.5452 15.4274C70.6727 16.247 67.7523 16.1472 64.8367 15.623C64.6843 15.5606 64.5537 15.4676 64.4574 15.3526C64.3611 15.2376 64.3022 15.1045 64.2861 14.9658C64.3772 14.4368 64.5148 13.9139 64.6979 13.401C66.8905 13.4675 68.8965 13.579 70.9001 13.5634C71.8982 13.5634 72.9635 13.3326 73.1741 12.3213C73.38 11.3433 72.6714 10.7077 71.6972 10.2871C70.3256 9.70032 68.9013 9.19177 67.5321 8.59911C65.8564 7.8793 64.6739 6.83872 64.4872 5.2133C64.1976 2.71943 66.0001 0.984473 69.4231 0.714547C71.4554 0.530685 73.5212 0.663693 75.8336 0.663693Z" fill="white"/>
<path d="M93.3342 15.5917C92.2761 15.5917 91.3641 15.6387 90.4617 15.5643C90.196 15.5428 89.8537 15.2123 89.7436 14.9658C89.4395 14.2284 89.2217 13.4656 89.0015 12.7067C88.8483 12.1766 88.4797 11.9614 87.8166 11.9751C86.6197 11.9986 85.4228 12.0025 84.2379 11.9751C83.5198 11.9575 83.1512 12.2157 82.9932 12.779C82.8089 13.4441 82.4785 14.0856 82.3565 14.7565C82.2344 15.4274 81.9184 15.6621 81.1141 15.6054C80.4199 15.5585 79.7161 15.5956 78.8496 15.5956C79.1081 14.9208 79.2829 14.3947 79.5127 13.8861C81.0088 10.5609 82.5408 7.24947 83.9986 3.91061C84.3145 3.18885 84.9561 3.25536 85.5306 3.34338C86.579 3.50377 88.1086 2.71746 88.6209 3.85584C90.2558 7.48223 91.6729 11.1732 93.169 14.8426C93.2433 15.0892 93.2984 15.3394 93.3342 15.5917ZM86.1697 5.09985L85.9183 5.08811C85.2457 6.77808 84.5707 8.47 83.8549 10.2656H88.1637L86.1697 5.09985Z" fill="white"/>
<path d="M32.2818 3.33857C32.2818 5.68574 32.2531 7.83732 32.2986 9.97717C32.3005 10.7559 32.4178 11.5315 32.6481 12.2872C33.0358 13.4764 34.2064 14.1102 35.6785 14.0867C37.2297 14.0632 38.4385 13.4842 38.6372 12.2461C38.9532 10.2901 38.9388 8.30089 39.0489 6.32535C39.0502 5.99861 39.0286 5.67209 38.9843 5.34736C38.8048 3.18209 38.9652 3.06864 41.8377 3.43832C41.8377 5.12829 41.8927 6.84173 41.8185 8.5493C41.7611 9.87741 41.7275 11.2368 41.3541 12.518C40.636 14.963 38.4601 16.0114 34.8575 15.8666C31.8103 15.7454 29.9264 14.5326 29.6319 12.0505C29.3112 9.37081 29.3686 6.65982 29.3184 3.96252C29.3558 3.8261 29.4349 3.69965 29.5484 3.59498C29.6618 3.49032 29.8059 3.41085 29.9671 3.364C30.6972 3.28184 31.4512 3.33857 32.2818 3.33857Z" fill="white"/>
<path d="M106.45 5.44892C105.464 5.33743 104.681 5.23377 103.893 5.16335C100.782 4.8856 98.4596 6.53253 98.3208 9.10074C98.158 12.1129 100.561 14.1863 103.975 14.0083C104.791 13.9672 105.069 13.7736 105.009 13.0675C104.913 11.9702 104.983 10.8611 104.983 9.58778C105.672 9.55627 106.363 9.56608 107.051 9.61712C107.214 9.66473 107.361 9.74524 107.476 9.85121C107.592 9.95718 107.672 10.0852 107.711 10.2235C107.774 11.7198 107.786 13.22 107.711 14.7222C107.711 14.9706 107.264 15.3912 106.993 15.4166C105.143 15.577 103.252 15.8821 101.435 15.7061C97.6577 15.3403 95.4267 13.177 95.228 10.0885C95.0293 7.00001 97.2723 4.14819 100.777 3.47729C102.407 3.16434 104.166 3.28169 105.868 3.25431C106.56 3.24062 106.862 3.57509 106.718 4.15406C106.615 4.55308 106.546 4.96579 106.45 5.44892Z" fill="white"/>
<path d="M53.8284 8.31256V10.0143C52.5191 10.0143 51.2576 10.0651 49.9984 9.99666C49.017 9.94385 48.5837 10.1923 48.6699 11.0157C49.0218 14.3722 48.0499 13.672 52.0475 13.7385C53.1534 13.7561 54.2617 13.7385 55.461 13.7385V15.5301H45.9099C45.8812 15.223 45.8285 14.9433 45.8285 14.6617C45.8285 11.2113 45.8573 7.75902 45.807 4.30672C45.795 3.52432 46.0847 3.29352 47.0039 3.30721C49.6202 3.34633 52.239 3.3209 54.9966 3.3209C54.9966 3.78447 54.9966 4.13068 54.9966 4.47493C54.9966 5.06172 54.6686 5.26906 53.9553 5.23385C52.5191 5.16344 51.0828 5.15366 49.6609 5.10476C48.9021 5.07737 48.5861 5.32187 48.622 5.96734C48.7824 8.86611 48.2271 8.28909 51.4251 8.31452C52.1863 8.31648 52.9356 8.31256 53.8284 8.31256Z" fill="white"/>
<path d="M120.451 5.11013C118.737 5.11013 117.099 5.14143 115.484 5.0984C114.541 5.07297 114.27 5.35463 114.287 6.12137C114.354 8.34337 114.313 8.34141 116.987 8.31598C117.779 8.31598 118.572 8.31598 119.476 8.31598C119.51 8.60743 119.529 8.88713 119.577 9.16683C119.692 9.86708 119.405 10.1918 118.466 10.1174C117.399 10.0333 116.312 10.0451 115.249 10.0001C114.593 9.97466 114.316 10.1957 114.337 10.7434C114.471 14.4089 113.755 13.6773 117.83 13.736C118.897 13.7497 119.967 13.736 121.181 13.736C121.181 14.1155 121.279 14.5732 121.145 14.98C121.063 15.2265 120.623 15.5668 120.338 15.5668C117.633 15.6118 114.926 15.5668 112.219 15.604C111.235 15.604 111.398 15.0895 111.405 14.6103C111.445 11.7781 111.5 8.94777 111.527 6.11551C111.527 5.46612 111.467 4.81478 111.4 4.15952C111.342 3.60989 111.51 3.30476 112.293 3.31063C114.758 3.33606 117.226 3.31063 119.694 3.32823C120.709 3.33997 120.81 3.61967 120.451 5.11013Z" fill="white"/>
<path d="M87.307 22.3426C86.9934 22.7337 86.8163 22.9293 86.6679 23.1406C84.8941 25.6834 83.1419 28.2437 81.3322 30.7689C81.1335 31.0486 80.6261 31.1816 80.0994 31.4731C79.738 27.7156 79.4029 24.2359 79.0605 20.6741H80.8128C80.9372 23.5357 81.0521 26.3464 81.1862 29.1396L81.3873 29.1826L81.9402 28.3787C83.6302 25.9416 85.2915 23.4888 87.0413 21.0849C87.2352 20.8188 87.8671 20.6741 88.3052 20.6604C88.4799 20.6604 88.8294 21.1455 88.8462 21.4213C89.0018 23.8936 89.0999 26.368 89.2196 28.8423C89.2373 28.9952 89.2645 29.1473 89.301 29.298L89.6313 29.5112C89.6422 29.3723 89.6768 29.2354 89.7343 29.1044C91.4602 26.5342 93.2363 23.9875 94.8976 21.3919C95.3931 20.6096 95.9604 20.4668 97.0304 20.7543C96.5301 21.4682 96.0729 22.147 95.5942 22.8022C93.593 25.4663 91.5894 28.1303 89.5452 30.7728C89.3273 31.0545 88.827 31.1895 88.2549 31.5063C87.9222 28.3415 87.6254 25.4526 87.307 22.3426Z" fill="white"/>
<path d="M26.6974 15.559H17.4647C17.4336 15.2558 17.3785 14.9722 17.3761 14.7042C17.3761 11.2225 17.4072 7.74285 17.3594 4.26316C17.3594 3.51989 17.6227 3.30669 18.5012 3.3106C20.4162 3.32038 20.4162 3.28713 20.3803 4.80497C20.3228 7.47097 20.2917 10.1389 20.1864 12.803C20.1601 13.5326 20.4258 13.8005 21.3258 13.7614C22.5538 13.7066 23.789 13.7379 25.0218 13.7125C27.09 13.6695 27.1259 13.7066 26.6974 15.559Z" fill="white"/>
<path d="M51.0399 24.222C50.9394 27.733 47.7342 30.8978 43.6193 31.5511C40.4021 32.0616 38.0108 30.3932 38.1376 27.7272C38.3028 24.2299 41.5104 21.0905 45.5367 20.49C48.7371 20.0049 51.1141 21.6225 51.0399 24.222ZM43.3057 30.6924C43.9688 30.4968 44.6917 30.3893 45.2878 30.1056C47.7342 28.932 48.9693 27.1286 49.2949 24.8597C49.4601 23.7115 49.1369 22.7199 47.952 22.0157C46.7671 21.3115 45.4362 21.2666 44.122 21.8318C41.2351 23.0778 39.9401 25.157 39.8133 27.7213C39.751 29.3937 41.3165 30.5868 43.3057 30.6924Z" fill="white"/>
<path d="M119.163 25.9407C120.93 27.437 120.619 29.3363 120.992 31.2023H119.271C119.125 30.2478 119.032 29.3089 118.828 28.3896C118.505 26.9598 116.054 26.06 114.539 26.8072C114.314 26.9187 114.18 27.2238 114.101 27.4605C113.785 28.4013 113.409 29.3382 113.241 30.2986C113.067 31.2981 112.451 31.4448 111.31 31.1847C111.413 30.8541 111.499 30.5509 111.597 30.2497C112.554 27.3275 113.512 24.4092 114.448 21.4791C114.632 20.8923 114.874 20.5735 115.704 20.6126C117.289 20.685 118.898 20.5676 120.463 20.7339C122.347 20.9295 123.029 21.9192 122.223 23.3295C121.758 24.1392 120.844 24.7827 120.09 25.4713C119.87 25.6727 119.506 25.7725 119.163 25.9407ZM114.632 25.8527C116.131 25.6571 117.43 25.6571 118.551 25.2991C119.338 25.0429 120.095 24.3759 120.49 23.7343C121.129 22.7075 120.49 21.8566 119.08 21.6767C118.217 21.5941 117.346 21.5889 116.482 21.661C116.337 21.6816 116.2 21.7303 116.083 21.8031C115.965 21.876 115.871 21.9708 115.807 22.0796C115.408 23.2297 115.077 24.3916 114.632 25.8527Z" fill="white"/>
<path d="M105.93 20.7321C106.428 24.0083 106.921 27.2318 107.405 30.4572C107.414 30.7094 107.4 30.9617 107.364 31.2122H105.674C105.583 30.332 105.449 29.4675 105.415 28.601C105.391 28.024 105.128 27.7795 104.417 27.7893C103.026 27.8088 101.631 27.7501 100.245 27.8225C99.7603 27.883 99.3225 28.093 99.0217 28.4093C98.454 28.9974 97.9847 29.6446 97.6262 30.334C97.1809 31.2376 96.4796 31.4958 95.2324 31.1946C95.4718 30.8582 95.6944 30.5355 95.9505 30.2342C98.4369 27.2116 100.926 24.1922 103.419 21.1761C103.927 20.5326 104.199 20.4895 105.93 20.7321ZM104.511 21.89L104.195 21.8352L100.147 26.8543C101.873 26.8543 103.278 26.8739 104.683 26.8308C104.846 26.8308 105.14 26.467 105.121 26.2929C104.949 24.822 104.719 23.357 104.511 21.89Z" fill="white"/>
<path d="M136.109 20.63C136.169 21.5102 135.757 21.7547 134.893 21.7136C133.624 21.653 132.348 21.6921 131.077 21.6491C130.33 21.6236 129.88 21.7938 129.734 22.451C129.533 23.3351 129.234 24.2114 128.947 25.1894H133.442C133.521 26.1674 133.473 26.2182 132.403 26.2143C131.446 26.2143 130.488 26.2143 129.531 26.1772C128.887 26.1537 128.492 26.2965 128.334 26.8715C128.054 27.9434 127.697 28.9996 127.329 30.1967H133.547C133.629 30.9947 133.322 31.3292 132.365 31.3116C130.139 31.2705 127.913 31.2979 125.562 31.2979C125.533 31.0841 125.533 30.8682 125.562 30.6544C126.563 27.5424 127.563 24.4305 128.612 21.3302C128.703 21.0584 129.114 20.6691 129.387 20.6613C131.613 20.6065 133.835 20.63 136.109 20.63Z" fill="white"/>
<path d="M35.5706 20.7335C35.4342 21.6293 35.0919 21.9462 33.9812 21.7428C32.9279 21.5472 31.7741 21.6156 30.6826 21.7037C29.6844 21.7839 29.007 22.3354 28.8298 23.155C28.6527 23.9746 29.378 24.3169 30.0818 24.6455C30.7041 24.9369 31.3576 25.1814 31.9776 25.4728C34.515 26.6699 34.7232 28.9936 32.4252 30.5193C30.9339 31.5149 29.1267 31.5911 27.3289 31.5833C26.4744 31.5833 25.6222 31.4053 24.7461 31.3056C24.9113 30.3178 25.3828 30.1574 26.4768 30.2865C27.8532 30.4508 29.3062 30.3511 30.6993 30.2004C31.6736 30.0948 32.2816 29.4572 32.4228 28.6357C32.5641 27.8141 31.901 27.376 31.1613 27.0102C30.4217 26.6445 29.6868 26.3648 28.9711 26.0127C27.0704 25.0758 26.6587 23.6655 28.0136 22.2357C28.6074 21.6316 29.3711 21.1538 30.2397 20.843C31.9465 20.2465 33.737 20.3951 35.5706 20.7335Z" fill="white"/>
<path d="M64.514 20.61C64.5715 21.453 64.2435 21.7542 63.3459 21.7132C61.9982 21.6506 60.6409 21.6975 59.2909 21.6467C58.5273 21.6173 58.1131 21.8168 57.9623 22.4564C57.723 23.4344 57.4333 24.3987 57.1341 25.4784H61.4787C61.6343 26.296 61.3423 26.6266 60.3633 26.566C59.4536 26.5092 58.5344 26.5757 57.6224 26.5444C56.9402 26.521 56.6194 26.7498 56.4734 27.2897C56.2005 28.3068 55.8534 29.3082 55.5494 30.3175C55.2359 31.3601 55.243 31.362 53.7158 31.186C53.7972 30.8828 53.8642 30.5835 53.9552 30.2901C54.9127 27.3366 55.8989 24.389 56.8133 21.4276C57.0048 20.8017 57.316 20.5826 58.0964 20.5963C60.2268 20.6354 62.362 20.61 64.514 20.61Z" fill="white"/>
<path d="M67.8576 31.1674C68.8846 28.0378 69.9115 24.9219 70.9839 21.6613H66.9552L66.7158 21.3777C67.0438 21.1234 67.3669 20.6559 67.7021 20.6501C70.7206 20.5914 73.7415 20.6168 76.8127 20.6168C76.9539 21.3816 76.6834 21.7435 75.7666 21.6554H75.6469C72.535 21.6554 72.5135 21.6554 71.6852 24.1767C71.015 26.2207 70.3208 28.2588 69.7511 30.3224C69.4998 31.275 68.954 31.4862 67.8576 31.1674Z" fill="white"/>
</svg>
