<svg width="150" height="19" viewBox="0 0 150 19" fill="none" xmlns="http://www.w3.org/2000/svg">
<path d="M51.4463 5.94276H54.9851C55.0701 6.25799 55.1503 6.56337 55.2895 7.08743C56.6484 5.99595 58.1866 5.4443 59.9749 5.55463C61.7632 5.66496 63.2023 6.30921 64.4056 7.5386C65.7763 6.23237 67.3947 5.53493 69.4001 5.54084C72.7926 5.54084 75.074 7.34356 75.1471 10.1589C75.2085 12.5232 75.1471 14.8736 75.192 17.2319C75.2038 17.8742 74.9277 18.0968 74.1681 18.0869C70.8345 18.0416 71.4196 18.3904 71.3677 15.8429C71.337 14.3042 71.403 12.7655 71.3299 11.2288C71.245 9.47332 70.1291 8.52369 68.3408 8.5631C66.5525 8.6025 65.2997 9.67231 65.2738 11.3213C65.2336 13.2915 65.236 15.2499 65.2738 17.2142C65.2856 17.8466 65.0378 18.0889 64.2593 18.0771C60.7865 18.0219 61.4801 18.4317 61.4164 15.7956C61.381 14.2904 61.4329 12.7832 61.3857 11.278C61.3315 9.53046 60.258 8.5631 58.465 8.56113C56.5776 8.56113 55.3532 9.61321 55.3178 11.3608C55.28 13.2915 55.28 15.2236 55.3178 17.157C55.3296 17.8269 55.0819 18.0692 54.2467 18.083C51.4604 18.1303 51.4604 18.1559 51.4628 15.8587V5.94276H51.4463Z" fill="white"/>
<path d="M81.4724 16.9859C81.5196 18.0262 80.8354 18.168 79.9507 18.0833C79.6772 18.0557 79.4008 18.0557 79.1273 18.0833C78.0208 18.2133 77.6198 17.8863 77.6457 16.9012C77.7212 14.1883 77.6717 11.4714 77.6717 8.75647C77.6717 6.50061 77.7023 4.24279 77.6551 1.98693C77.641 1.21462 77.8675 0.861958 78.8937 0.88363C81.9914 0.948646 81.4181 0.643268 81.47 3.00748C81.4936 4.15216 81.47 5.29683 81.4889 6.44151C81.5145 6.59047 81.5547 6.73742 81.6092 6.88086C83.7585 5.5234 86.0658 5.13922 88.5524 5.99428C89.9823 6.48457 91.1651 7.37276 91.9002 8.50823C93.705 11.1798 93.1199 14.8542 90.579 16.8578C88.1349 18.7906 85.0773 18.8674 81.4724 16.9859ZM85.3085 15.3999C87.4507 15.3822 89.0951 13.9006 89.1069 11.9797C89.1069 10.0095 87.4554 8.5496 85.2023 8.55157C82.9988 8.55157 81.3379 10.0509 81.3473 12.025C81.3568 13.9991 83.0295 15.4236 85.3085 15.3999Z" fill="white"/>
<path d="M22.5908 0.84373V6.95129C23.0626 6.70896 23.3198 6.59075 23.5628 6.45086C25.5233 5.32195 27.5947 5.23723 29.6968 6.09623C31.7068 6.91977 32.5278 8.36391 32.5278 10.1844C32.5278 12.4776 32.4995 14.769 32.542 17.0603C32.5562 17.8129 32.2872 18.1104 31.3388 18.0887C28.1916 18.0178 28.7955 18.3724 28.7436 15.9944C28.7083 14.4183 28.7436 12.8421 28.7295 11.2798C28.7059 9.63468 27.7197 8.66141 26.047 8.57078C24.2304 8.47424 22.8432 9.34506 22.6946 10.9645C22.5377 12.9569 22.5022 14.9546 22.5884 16.95C22.6167 17.8858 22.2251 18.1202 21.1729 18.0907C18.3937 18.0139 18.8136 18.3409 18.8136 16.089C18.79 11.4709 18.8136 6.85475 18.8136 2.23665C18.8136 0.83191 18.8136 0.831909 20.5595 0.831909C21.1752 0.84373 21.7957 0.84373 22.5908 0.84373Z" fill="white"/>
<path d="M149.989 18.0727C148.46 18.0727 147.203 18.1299 145.962 18.0392C145.563 18.0116 145.091 17.6452 144.848 17.3418C143.652 15.8109 142.522 14.2466 141.309 12.5996C140.198 13.3305 139.186 13.9353 139.351 15.2278C139.436 15.9075 139.332 16.6069 139.372 17.2866C139.408 17.8915 139.092 18.0904 138.398 18.0747C134.956 18.0353 135.626 18.3939 135.602 15.8641C135.56 11.2835 135.617 6.70281 135.569 2.12214C135.569 1.20995 135.822 0.839552 136.999 0.873045C139.8 0.955793 139.332 0.676029 139.358 2.88854C139.384 4.91586 139.358 6.94514 139.358 8.97246V10.3004C139.702 10.0974 140.032 9.87832 140.347 9.64429C141.484 8.64935 142.633 7.66229 143.725 6.63385C144.287 6.10387 144.879 5.82608 145.757 5.88124C146.799 5.94429 147.852 5.89503 149.203 5.89503C147.599 7.27416 146.226 8.51734 144.77 9.68369C144.1 10.2215 144.063 10.6235 144.591 11.2598C146.181 13.165 147.698 15.1155 149.239 17.0502C149.458 17.3142 149.647 17.59 149.989 18.0727Z" fill="white"/>
<path d="M114.796 10.1772C114.686 9.09159 114.027 8.62269 113.022 8.404C111.548 8.07498 110.142 8.2917 108.776 8.77045C108.384 8.90837 107.999 9.06007 107.49 9.25118L106.15 7.21598C108.672 5.30097 113.806 4.97983 116.488 6.52248C117.837 7.29873 118.491 8.42371 118.751 9.72993C118.81 10.1219 118.831 10.5172 118.814 10.912C118.814 13.2309 118.814 15.5518 118.814 17.9574H115.221C115.167 17.6599 115.115 17.3782 115.037 16.9723C114.719 17.1457 114.473 17.2659 114.244 17.4058C112.289 18.5879 110.184 18.7553 108.011 17.9357C106.223 17.2639 105.355 16.0542 105.416 14.4071C105.477 12.7601 106.482 11.6331 108.278 11.1524C109.719 10.7584 111.274 10.6756 112.779 10.4589C113.421 10.3486 114.072 10.2698 114.796 10.1772ZM114.796 12.2715C113.499 12.4429 112.201 12.567 110.906 12.7955C109.726 13.0044 109.186 13.6664 109.292 14.547C109.391 15.3686 110.191 15.9005 111.376 15.9262C113.723 16.001 115.176 14.5194 114.808 12.2715H114.796Z" fill="white"/>
<path d="M48.7496 5.8972V7.17191C48.7496 10.4759 48.7236 13.7819 48.7708 17.0859C48.7708 17.8739 48.4783 18.1655 47.5629 18.0847C47.1707 18.052 46.7755 18.052 46.3833 18.0847C45.5104 18.1576 44.8238 18.0335 44.838 17.3479C43.4578 17.7025 42.1272 18.2758 40.7565 18.3527C37.5291 18.5339 35.1675 16.8021 35.0023 14.1286C34.8395 11.5181 34.9669 8.89581 34.974 6.27745C35.0052 6.16417 35.0577 6.05576 35.1297 5.9563H38.7252C38.7511 6.32276 38.7913 6.67148 38.7936 7.01823C38.7936 8.91552 38.7747 10.8148 38.8078 12.7121C38.8361 14.3394 39.8647 15.3166 41.5374 15.3777C43.4248 15.4447 44.7271 14.5896 44.8403 12.9603C44.9866 10.9724 44.9654 8.97265 44.9205 6.97883C44.9017 6.11195 45.2343 5.79672 46.27 5.88538C47.0486 5.95039 47.8342 5.8972 48.7496 5.8972Z" fill="white"/>
<path d="M103.841 5.89838C104.242 8.72362 104.242 8.76696 101.139 8.70983C99.9714 8.68815 99.5326 8.92458 99.6223 9.95104C99.7355 11.2533 99.6223 12.5655 99.6553 13.8737C99.6836 15.0853 100.476 15.6468 101.885 15.3001C102.843 15.0656 103.251 15.2666 103.508 16.0074C103.68 16.5019 103.963 16.9728 104.246 17.5559C102.201 18.3617 100.174 18.7755 98.1006 17.9992C96.2132 17.2919 95.68 15.8793 95.7838 14.2559C95.8121 13.8303 95.7838 13.4048 95.7838 12.9792C95.7838 12.0631 95.7413 11.1469 95.7956 10.2328C95.8499 9.31861 95.8286 8.51084 94.2597 8.69997C94.0946 8.72165 93.7053 8.3611 93.6864 8.15817C93.6133 7.45285 93.6581 6.73768 93.6581 6.05599C95.7814 5.69348 95.7626 5.69348 95.7979 3.83363C95.7979 3.34306 95.9136 2.4545 96.0976 2.43086C97.1639 2.29689 98.2657 2.35402 99.3533 2.39934C99.4595 2.39934 99.6152 2.76776 99.6293 2.97069C99.6902 3.56065 99.6902 4.15389 99.6293 4.74385C99.4878 5.72894 99.9974 6.01068 101.099 5.92596C101.991 5.84518 102.892 5.89838 103.841 5.89838Z" fill="white"/>
<path d="M133.946 7.87572C133.219 8.386 132.504 8.94159 131.712 9.40458C131.504 9.52673 130.988 9.45186 130.73 9.31592C128.883 8.34068 127.192 8.28946 125.823 9.21544C124.408 10.1848 123.936 12.0249 124.712 13.5203C125.656 15.2934 128.168 16.0362 130.117 14.8994C131.233 14.2532 131.884 14.4344 132.667 15.1398C133.061 15.4924 133.526 15.7899 133.946 16.1032C132.429 18.0418 128.902 18.8772 125.736 18.1029C122.433 17.2951 120.451 15.0097 120.451 11.9757C120.451 8.94159 122.409 6.66997 125.731 5.84052C128.876 5.05836 132.412 5.89963 133.946 7.87572Z" fill="white"/>
<path d="M17.3342 4.03807H9.46148C6.67286 4.03807 3.88425 4.0164 1.09564 4.0499C0.284059 4.0499 0.0103889 3.85286 0.00331119 3.16322C-0.0155627 0.844074 -0.0462331 0.844073 2.77305 0.844073C7.21077 0.844073 11.6508 0.865748 16.0909 0.82634C17.07 0.816489 17.4333 1.05491 17.3437 1.87656C17.2753 2.54058 17.3342 3.2243 17.3342 4.03807Z" fill="white"/>
<path d="M10.5282 5.57205C10.5282 8.74798 10.665 11.8175 10.4574 14.8713C10.3795 15.9963 9.48302 17.0838 8.84131 18.4354C7.47531 16.8277 6.68733 15.3993 6.64014 13.7582C6.58116 11.7328 6.58588 9.70352 6.64014 7.6762C6.66592 7.29853 6.85349 6.9412 7.16861 6.66945C8.07748 5.95605 9.28088 5.56296 10.5282 5.57205Z" fill="white"/>
</svg>
