<svg width="126" height="53" viewBox="0 0 126 53" fill="none" xmlns="http://www.w3.org/2000/svg">
<g filter="url(#filter0_f_156_228)">
<path d="M31.2636 38.8808C29.3284 40.4315 27.3738 41.9743 25.458 43.5381C23.784 44.8943 22.1907 46.3162 20.4554 47.6145C19.8297 48.0824 18.8943 48.5476 18.0977 48.5502C5.05753 48.5791 -7.98263 48.516 -21.0196 48.5265C-22.5677 48.5265 -23.0064 48.1139 -22.9999 46.8681C-22.9397 33.2011 -22.93 19.5289 -22.9709 5.8514C-22.9709 4.63451 -22.529 4.30598 -21.0712 4.30861C-0.893269 4.34015 19.2846 4.34015 39.4625 4.30861C40.9139 4.30861 41.3977 4.61612 41.3687 5.84877C41.2655 9.21032 41.2752 12.5771 41.3687 15.9387C41.4009 17.1056 41.0462 17.5156 39.527 17.5156C26.5965 17.5156 13.666 17.5735 0.732311 17.6155C-1.52544 17.6155 -1.52544 17.6155 -1.52544 19.4553C-1.52544 24.2598 -1.48351 29.0669 -1.55125 33.8713C-1.56738 35.033 -1.09647 35.3799 0.300114 35.3537C3.948 35.288 7.59912 35.3537 11.247 35.3169C11.8534 35.3169 12.6371 35.2354 13.0274 34.9305C15.2368 33.209 17.3526 31.4113 19.4781 29.6293C19.6387 29.4344 19.7697 29.2243 19.8684 29.0038C19.1524 28.9722 18.6008 28.9302 18.0493 28.9276C15.1465 28.9276 12.2436 28.8829 9.35694 28.9644C8.02809 29.0012 7.69265 28.5964 7.74425 27.6003C7.81521 25.9865 7.84424 24.3649 7.71845 22.7538C7.62815 21.5658 8.20871 21.2504 9.56013 21.253C17.1785 21.2688 24.8 21.2346 32.4183 21.2241C34.9405 21.2241 37.4628 21.2504 39.985 21.2241C40.93 21.2241 41.3332 21.4685 41.33 22.2754C41.3149 30.6613 41.3225 39.0481 41.3526 47.4358C41.3526 48.2506 40.9462 48.5423 40.0366 48.537C37.7337 48.5239 35.4276 48.4976 33.1214 48.5002C32.0764 48.5002 31.7668 48.1139 31.7926 47.2834C31.8571 45.0125 31.8184 42.7391 31.8216 40.4683V39.0858L31.2636 38.8808Z" fill="white"/>
</g>
<g filter="url(#filter1_f_156_228)">
<path d="M95.084 25.1163V33.0983H93.1714V20.6719C96.7193 23.655 100.087 26.504 103.467 29.3451L103.883 29.2216V21.3789C105.441 21.0162 106.073 21.2422 106.047 22.5222C105.97 26.1334 106.021 29.7473 105.679 33.5346L95.5646 24.9849L95.084 25.1163Z" fill="white"/>
</g>
<g filter="url(#filter2_f_156_228)">
<path d="M63.0491 7.11954L61.6976 8.09989C58.5561 6.11818 55.8146 5.86323 53.5729 7.28775C51.5764 8.55457 50.9023 10.8359 51.928 12.8439C52.8472 14.6443 55.2275 15.8795 57.3821 15.6745C58.3906 15.5851 59.3333 15.2231 60.0599 14.6463C60.7866 14.0694 61.2552 13.3109 61.3912 12.4917C60.8139 12.4654 60.2527 12.4391 59.6882 12.4181L58.1013 12.3603C57.6337 11.309 57.7788 10.6861 59.3431 10.7833C60.0882 10.828 60.8429 10.7833 61.6009 10.7833C64.0554 10.7833 64.1167 10.849 63.5909 12.7545C62.4104 17.0018 56.7499 18.6235 52.3666 15.9321C49.9315 14.434 48.9381 12.3813 49.4993 9.9423C50.0928 7.35083 52.057 5.66086 55.1727 4.9486C58.2884 4.23634 60.7784 5.24033 63.0491 7.11954Z" fill="white"/>
</g>
<g filter="url(#filter3_f_156_228)">
<path d="M67.5291 33.4197C63.4071 33.4197 59.885 30.4839 59.9398 27.0829C59.9914 23.7477 63.5942 20.9407 67.8065 20.9512C71.8285 20.9512 75.3023 23.7687 75.3345 27.033C75.3546 27.874 75.1666 28.7096 74.7818 29.4902C74.3971 30.2707 73.8234 30.9801 73.095 31.5761C72.3666 32.1721 71.4984 32.6425 70.5422 32.9592C69.586 33.2759 68.5612 33.4325 67.5291 33.4197ZM67.5904 31.89C69.135 31.862 70.6053 31.3446 71.6893 30.4475C72.7733 29.5505 73.3855 28.3445 73.3961 27.0856C73.3703 24.7017 70.6416 22.4887 67.6968 22.4677C64.636 22.4467 62.0783 24.5966 62.0557 27.1986C62.0234 29.6823 64.6682 31.9111 67.5904 31.89Z" fill="white"/>
</g>
<g filter="url(#filter4_f_156_228)">
<path d="M109.843 33.0988V21.2716C113.416 21.1507 116.938 20.8353 119.519 23.3926C121.331 25.1956 121.557 28.2549 120.035 30.305C117.667 33.472 113.852 33.2749 109.843 33.0988ZM119.012 27.1458C119.011 26.4969 118.837 25.8559 118.502 25.2675C118.166 24.679 117.677 24.1571 117.069 23.7382C116.461 23.3192 115.749 23.0132 114.981 22.8414C114.213 22.6696 113.408 22.6362 112.623 22.7435C112.444 22.7875 112.281 22.8674 112.15 22.9757C112.019 23.084 111.923 23.2174 111.871 23.3637C111.816 25.8895 111.81 28.4152 111.871 30.941C111.928 31.103 112.035 31.2504 112.182 31.3692C112.329 31.4879 112.511 31.5739 112.71 31.6191C116.513 31.6796 118.838 30.0921 119.012 27.1405V27.1458Z" fill="white"/>
</g>
<g filter="url(#filter5_f_156_228)">
<path d="M71.5795 43.6506L75.795 48.4262C74.2791 48.7836 73.3244 48.5786 72.5406 47.5615C71.5117 46.2263 70.3151 44.9753 69.1895 43.6874L68.7411 43.832V48.1213C66.8059 48.647 66.5608 48.5287 66.5608 47.1226C66.5608 44.0265 66.5963 40.9304 66.535 37.8369C66.5156 36.9354 66.8382 36.5385 67.9767 36.6121C68.7734 36.6621 69.5894 36.6121 70.3829 36.6516C72.5697 36.7646 74.0824 37.6529 74.5339 39.0433C75.0242 40.5545 74.321 42.0632 72.6535 43.0566C72.36 43.2354 72.0471 43.3957 71.5795 43.6506ZM68.7734 42.0737C70.2087 42.1394 71.5859 42.1473 72.3213 41.1327C72.5058 40.8336 72.6078 40.5053 72.6201 40.1706C72.6323 39.836 72.5546 39.5033 72.3923 39.1957C71.6762 38.1444 70.2958 37.9999 68.7831 38.1208L68.7734 42.0737Z" fill="white"/>
</g>
<g filter="url(#filter6_f_156_228)">
<path d="M78.4786 21.1738L80.3977 21.2816C80.3977 22.6246 80.3719 23.8783 80.3977 25.132C80.4364 26.5697 80.4816 28.0099 80.6106 29.4423C80.7493 30.9352 81.962 31.8078 83.7747 31.8577C85.5873 31.9077 86.8388 31.0403 87 29.5159C87.1742 27.6919 87.1516 25.8574 87.1968 24.0281C87.2161 23.1608 87.1968 22.2935 87.1968 21.4603C89.0482 20.9977 89.2675 21.0871 89.2578 22.4117C89.2578 24.8087 89.2578 27.2109 89.0901 29.6027C88.932 31.8367 86.5453 33.4478 83.7263 33.4163C80.9557 33.3847 78.5818 31.6606 78.5044 29.4502C78.4044 26.7563 78.4786 24.057 78.4786 21.1738Z" fill="white"/>
</g>
<g filter="url(#filter7_f_156_228)">
<path d="M74.3864 11.2074C72.9801 11.2074 71.5964 11.2284 70.216 11.2074C69.2483 11.189 68.7807 11.4308 68.7387 12.3192C68.5968 15.4547 68.5613 15.41 72.4189 15.4731C73.222 15.4862 74.7702 14.8134 74.7444 16.2274C74.7218 17.4968 73.2575 16.8871 72.4576 16.9502C71.0255 17.0632 69.5548 16.9291 68.1162 16.9502C67.168 16.9633 66.768 16.6637 66.7745 15.8752C66.8003 12.6004 66.7938 9.32556 66.7745 6.05075C66.7745 5.35951 67.0486 4.99944 67.9743 4.99944C69.8515 5.02047 71.7319 4.95739 73.6058 5.03098C74.0154 5.04938 74.3993 5.50407 74.796 5.75638C74.4122 6.01921 74.0574 6.46864 73.6413 6.50544C72.4221 6.61583 71.1803 6.558 69.945 6.57115C68.1904 6.59217 68.8839 7.68816 68.771 8.41093C68.6581 9.1337 68.8387 9.72506 70.016 9.66987C71.032 9.62782 72.0576 9.70929 73.0736 9.64884C74.2993 9.56999 74.8057 9.92744 74.3864 11.2074Z" fill="white"/>
</g>
<g filter="url(#filter8_f_156_228)">
<path d="M86.6267 38.1663L85.5107 38.7866C84.3722 38.4449 83.4852 37.9613 82.624 37.9981C82.2275 38.0429 81.8488 38.1609 81.5168 38.3431C81.1848 38.5253 80.9082 38.7669 80.7082 39.0494C80.5082 39.4069 81.0533 40.2716 81.5661 40.6106C82.3305 41.1179 83.3562 41.3702 84.2754 41.7198C86.4977 42.5661 87.4814 44.0852 86.9525 45.8382C86.3784 47.7359 84.5625 48.8292 82.1144 48.753C79.9051 48.6847 78.1892 47.3705 77.8408 45.4046L79.5277 45.0051C79.8212 45.4545 80.0534 45.8382 80.3147 46.2088C80.9339 47.0867 81.9886 47.4757 83.0401 47.113C83.8077 46.8501 84.7302 46.1326 84.8334 45.536C84.9495 44.8789 84.4077 43.959 83.7787 43.4544C83.0466 42.8788 81.9048 42.6502 80.9436 42.2638C79.4567 41.6672 78.3633 40.8235 78.4182 39.3569C78.4569 38.0244 79.3664 37.1466 80.8017 36.6551C82.4466 36.0953 84.0561 36.182 85.4753 37.1492C85.884 37.4689 86.2685 37.8086 86.6267 38.1663Z" fill="white"/>
</g>
<g filter="url(#filter9_f_156_228)">
<path d="M57.5397 27.38H55.282C52.6146 27.38 52.6178 27.38 52.6404 29.6114C52.6404 30.7363 52.6404 31.8612 52.6404 33.0571L51.0277 33.1753C50.9037 32.9261 50.816 32.6659 50.7664 32.4C50.7471 28.9833 50.7664 25.5902 50.731 22.1866C50.731 21.3692 51.1632 21.1353 52.0985 21.1668C53.5467 21.2141 55.0013 21.1799 56.4431 21.1905C57.1269 21.1905 57.9171 21.0774 57.8784 21.9789C57.8397 22.8804 57.0107 22.6938 56.356 22.7149C55.5523 22.7477 54.7471 22.7477 53.9434 22.7149C52.6759 22.6492 52.5178 23.2826 52.6533 24.0579C52.7726 24.778 52.1437 25.8714 53.8951 25.8583C54.7014 25.8583 55.5077 25.8951 56.3076 25.8583C57.5494 25.7952 58.0332 26.1737 57.5397 27.38Z" fill="white"/>
</g>
<g filter="url(#filter10_f_156_228)">
<path d="M57.6235 42.6706C56.4753 42.6706 55.4045 42.7127 54.3401 42.6706C53.1177 42.6128 52.5726 42.9624 52.6468 44.0189C52.7231 45.2406 52.7091 46.465 52.6049 47.6854C52.5791 47.9955 52.0985 48.2767 51.8243 48.5737C51.4534 48.3109 50.7664 48.027 50.76 47.7458C50.6826 44.2958 50.6826 40.8449 50.76 37.3931C50.76 37.1302 51.405 36.6887 51.7566 36.6729C53.4755 36.5963 55.1983 36.5963 56.9172 36.6729C57.2655 36.6887 57.5622 37.1513 57.9074 37.4088C57.5622 37.6454 57.2429 38.0317 56.8591 38.0843C56.0601 38.1698 55.2517 38.1804 54.4498 38.1158C53.3467 38.0607 52.5404 38.1684 52.6726 39.338C52.7726 40.2605 52.3501 41.388 54.2853 41.254C54.9304 41.2119 55.5754 41.3066 56.2205 41.2277C57.5494 41.0595 58.0041 41.4879 57.6235 42.6706Z" fill="white"/>
</g>
<g filter="url(#filter11_f_156_228)">
<path d="M85.0983 4.99634V6.38932C84.9371 6.46291 84.8468 6.5365 84.7532 6.53913C81.8891 6.61798 81.8859 6.61535 81.8859 8.92559C81.8859 11.1491 81.8343 13.3726 81.9214 15.5909C81.9697 16.7894 81.4859 17.2073 79.8313 16.7841C79.8313 15.3123 79.8313 13.7984 79.8313 12.2871C79.8313 11.1544 79.8475 10.0216 79.8475 8.8888C79.8475 6.83087 79.8475 6.85715 77.3607 6.50759C76.9898 6.45503 76.7156 6.01348 76.377 5.75065C76.6995 5.48783 77.022 5.03839 77.3768 5.02788C79.8829 4.97531 82.3923 4.99634 85.0983 4.99634Z" fill="white"/>
</g>
<g filter="url(#filter12_f_156_228)">
<path d="M88.7686 36.6367C91.3844 36.6367 94.0421 36.6157 96.6998 36.6709C96.9707 36.6709 97.3771 37.1361 97.4352 37.4226C97.4707 37.6066 97.0159 37.9482 96.6998 38.0534C96.3385 38.1367 95.9578 38.1476 95.5903 38.0849C94.5453 37.9956 94.1711 38.3477 94.184 39.2098C94.226 41.867 94.184 44.5268 94.184 47.1866C94.184 47.7885 94.3679 48.435 93.1648 48.4613C91.9617 48.4876 92.094 47.8489 92.094 47.2392C92.094 44.6109 92.0424 42.0037 92.1166 39.3885C92.1488 38.3583 91.7586 37.9509 90.4749 38.1007C89.3653 38.2321 88.3751 38.1454 88.7686 36.6367Z" fill="white"/>
</g>
<g filter="url(#filter13_f_156_228)">
<path d="M62.7194 42.5134C62.7194 44.2113 62.7646 45.9091 62.6775 47.6017C62.6314 47.8026 62.5264 47.9914 62.3714 48.152C62.2164 48.3127 62.016 48.4404 61.7873 48.5242C60.91 48.7187 60.7616 48.1694 60.7648 47.5781C60.7648 44.2717 60.739 40.9627 60.8132 37.659C60.8132 37.3147 61.4228 36.9783 61.7518 36.6366C62.0743 36.9862 62.6517 37.3252 62.6743 37.6879C62.7775 39.2911 62.7194 40.9049 62.7194 42.5134Z" fill="white"/>
</g>
<defs>
<filter id="filter0_f_156_228" x="-27" y="0.308594" width="72.3706" height="52.2493" filterUnits="userSpaceOnUse" color-interpolation-filters="sRGB">
<feFlood flood-opacity="0" result="BackgroundImageFix"/>
<feBlend mode="normal" in="SourceGraphic" in2="BackgroundImageFix" result="shape"/>
<feGaussianBlur stdDeviation="2" result="effect1_foregroundBlur_156_228"/>
</filter>
<filter id="filter1_f_156_228" x="89.1714" y="16.6719" width="20.8765" height="20.8627" filterUnits="userSpaceOnUse" color-interpolation-filters="sRGB">
<feFlood flood-opacity="0" result="BackgroundImageFix"/>
<feBlend mode="normal" in="SourceGraphic" in2="BackgroundImageFix" result="shape"/>
<feGaussianBlur stdDeviation="2" result="effect1_foregroundBlur_156_228"/>
</filter>
<filter id="filter2_f_156_228" x="45.3467" y="0.71875" width="22.5103" height="20.5295" filterUnits="userSpaceOnUse" color-interpolation-filters="sRGB">
<feFlood flood-opacity="0" result="BackgroundImageFix"/>
<feBlend mode="normal" in="SourceGraphic" in2="BackgroundImageFix" result="shape"/>
<feGaussianBlur stdDeviation="2" result="effect1_foregroundBlur_156_228"/>
</filter>
<filter id="filter3_f_156_228" x="55.9392" y="16.9512" width="23.3967" height="20.4692" filterUnits="userSpaceOnUse" color-interpolation-filters="sRGB">
<feFlood flood-opacity="0" result="BackgroundImageFix"/>
<feBlend mode="normal" in="SourceGraphic" in2="BackgroundImageFix" result="shape"/>
<feGaussianBlur stdDeviation="2" result="effect1_foregroundBlur_156_228"/>
</filter>
<filter id="filter4_f_156_228" x="105.843" y="17.1915" width="19.2002" height="19.991" filterUnits="userSpaceOnUse" color-interpolation-filters="sRGB">
<feFlood flood-opacity="0" result="BackgroundImageFix"/>
<feBlend mode="normal" in="SourceGraphic" in2="BackgroundImageFix" result="shape"/>
<feGaussianBlur stdDeviation="2" result="effect1_foregroundBlur_156_228"/>
</filter>
<filter id="filter5_f_156_228" x="62.5342" y="32.6035" width="17.2607" height="19.9857" filterUnits="userSpaceOnUse" color-interpolation-filters="sRGB">
<feFlood flood-opacity="0" result="BackgroundImageFix"/>
<feBlend mode="normal" in="SourceGraphic" in2="BackgroundImageFix" result="shape"/>
<feGaussianBlur stdDeviation="2" result="effect1_foregroundBlur_156_228"/>
</filter>
<filter id="filter6_f_156_228" x="74.4521" y="17.1738" width="18.8059" height="20.2429" filterUnits="userSpaceOnUse" color-interpolation-filters="sRGB">
<feFlood flood-opacity="0" result="BackgroundImageFix"/>
<feBlend mode="normal" in="SourceGraphic" in2="BackgroundImageFix" result="shape"/>
<feGaussianBlur stdDeviation="2" result="effect1_foregroundBlur_156_228"/>
</filter>
<filter id="filter7_f_156_228" x="62.7744" y="0.994141" width="16.0215" height="20.0481" filterUnits="userSpaceOnUse" color-interpolation-filters="sRGB">
<feFlood flood-opacity="0" result="BackgroundImageFix"/>
<feBlend mode="normal" in="SourceGraphic" in2="BackgroundImageFix" result="shape"/>
<feGaussianBlur stdDeviation="2" result="effect1_foregroundBlur_156_228"/>
</filter>
<filter id="filter8_f_156_228" x="73.8408" y="32.3086" width="17.252" height="20.4481" filterUnits="userSpaceOnUse" color-interpolation-filters="sRGB">
<feFlood flood-opacity="0" result="BackgroundImageFix"/>
<feBlend mode="normal" in="SourceGraphic" in2="BackgroundImageFix" result="shape"/>
<feGaussianBlur stdDeviation="2" result="effect1_foregroundBlur_156_228"/>
</filter>
<filter id="filter9_f_156_228" x="46.731" y="17.1641" width="15.1487" height="20.0112" filterUnits="userSpaceOnUse" color-interpolation-filters="sRGB">
<feFlood flood-opacity="0" result="BackgroundImageFix"/>
<feBlend mode="normal" in="SourceGraphic" in2="BackgroundImageFix" result="shape"/>
<feGaussianBlur stdDeviation="2" result="effect1_foregroundBlur_156_228"/>
</filter>
<filter id="filter10_f_156_228" x="46.7019" y="32.6155" width="15.2056" height="19.9583" filterUnits="userSpaceOnUse" color-interpolation-filters="sRGB">
<feFlood flood-opacity="0" result="BackgroundImageFix"/>
<feBlend mode="normal" in="SourceGraphic" in2="BackgroundImageFix" result="shape"/>
<feGaussianBlur stdDeviation="2" result="effect1_foregroundBlur_156_228"/>
</filter>
<filter id="filter11_f_156_228" x="72.377" y="0.992188" width="16.7214" height="19.9525" filterUnits="userSpaceOnUse" color-interpolation-filters="sRGB">
<feFlood flood-opacity="0" result="BackgroundImageFix"/>
<feBlend mode="normal" in="SourceGraphic" in2="BackgroundImageFix" result="shape"/>
<feGaussianBlur stdDeviation="2" result="effect1_foregroundBlur_156_228"/>
</filter>
<filter id="filter12_f_156_228" x="84.6807" y="32.6328" width="16.7566" height="19.8292" filterUnits="userSpaceOnUse" color-interpolation-filters="sRGB">
<feFlood flood-opacity="0" result="BackgroundImageFix"/>
<feBlend mode="normal" in="SourceGraphic" in2="BackgroundImageFix" result="shape"/>
<feGaussianBlur stdDeviation="2" result="effect1_foregroundBlur_156_228"/>
</filter>
<filter id="filter13_f_156_228" x="56.7605" y="32.6366" width="9.9751" height="19.9275" filterUnits="userSpaceOnUse" color-interpolation-filters="sRGB">
<feFlood flood-opacity="0" result="BackgroundImageFix"/>
<feBlend mode="normal" in="SourceGraphic" in2="BackgroundImageFix" result="shape"/>
<feGaussianBlur stdDeviation="2" result="effect1_foregroundBlur_156_228"/>
</filter>
</defs>
</svg>
