<svg width="9" height="16" viewBox="0 0 9 16" fill="none" xmlns="http://www.w3.org/2000/svg">
<path d="M0.712262 0.000156779C0.805467 -0.000328634 0.897863 0.0157703 0.98415 0.0475325C1.07044 0.0792937 1.14892 0.126092 1.21509 0.185245L7.00119 5.39959C7.33095 5.69602 7.59259 6.04817 7.7711 6.43586C7.94962 6.82356 8.0415 7.23918 8.0415 7.65893C8.0415 8.07868 7.94962 8.4943 7.7711 8.88199C7.59259 9.26969 7.33095 9.62184 7.00118 9.91827L1.21509 15.1326C1.14906 15.1921 1.07067 15.2393 0.98439 15.2715C0.898114 15.3037 0.805645 15.3203 0.71226 15.3203C0.618876 15.3203 0.526407 15.3037 0.440131 15.2715C0.353855 15.2393 0.275463 15.1921 0.20943 15.1326C0.143398 15.0731 0.0910168 15.0025 0.0552802 14.9247C0.0195437 14.847 0.00115114 14.7636 0.00115115 14.6795C0.00115116 14.5953 0.0195437 14.512 0.0552803 14.4342C0.0910169 14.3565 0.143398 14.2858 0.20943 14.2263L5.99552 9.01198C6.3934 8.65297 6.61688 8.16632 6.61688 7.65893C6.61688 7.15153 6.3934 6.66489 5.99552 6.30588L0.209432 1.09153C0.143052 1.0322 0.0903639 0.961611 0.054409 0.883837C0.0184541 0.806063 -5.6758e-05 0.722642 -5.67499e-05 0.638388C-5.67417e-05 0.554134 0.0184541 0.470714 0.054409 0.392939C0.090364 0.315165 0.143052 0.244577 0.209432 0.185245C0.275607 0.126092 0.354087 0.0792936 0.440374 0.0475324C0.526661 0.0157703 0.619056 -0.000328649 0.712262 0.000156779Z" fill="#F9CC11"/>
</svg>
