<svg width="9" height="16" viewBox="0 0 9 16" fill="none" xmlns="http://www.w3.org/2000/svg">
<path d="M7.32924 15.3202C7.23604 15.3206 7.14364 15.3045 7.05736 15.2728C6.97107 15.241 6.89259 15.1942 6.82641 15.1351L1.04032 9.92072C0.710553 9.62429 0.448919 9.27214 0.270404 8.88445C0.0918892 8.49675 0 8.08113 0 7.66138C0 7.24164 0.0918892 6.82601 0.270404 6.43832C0.448919 6.05062 0.710553 5.69848 1.04032 5.40205L6.82641 0.187698C6.89244 0.128191 6.97084 0.0809866 7.05711 0.0487812C7.14339 0.0165759 7.23586 6.27016e-10 7.32924 0C7.42263 -6.27016e-10 7.5151 0.0165759 7.60137 0.0487812C7.68765 0.0809866 7.76604 0.128191 7.83207 0.187698C7.89811 0.247206 7.95049 0.317852 7.98622 0.395603C8.02196 0.473353 8.04035 0.556686 8.04035 0.640842C8.04035 0.724999 8.02196 0.808332 7.98622 0.886082C7.95049 0.963833 7.89811 1.03448 7.83207 1.09399L2.04598 6.30833C1.64811 6.66734 1.42462 7.15399 1.42462 7.66138C1.42462 8.16878 1.64811 8.65543 2.04598 9.01443L7.83207 14.2288C7.89845 14.2881 7.95114 14.3587 7.9871 14.4365C8.02305 14.5142 8.04156 14.5977 8.04156 14.6819C8.04156 14.7662 8.02305 14.8496 7.9871 14.9274C7.95114 15.0051 7.89845 15.0757 7.83207 15.1351C7.7659 15.1942 7.68742 15.241 7.60113 15.2728C7.51484 15.3045 7.42245 15.3206 7.32924 15.3202Z" fill="#F9CC11"/>
</svg>
